<svg width="24" height="24" viewBox="0 0 24 24" fill="none" xmlns="http://www.w3.org/2000/svg">
<g clip-path="url(#clip0)">
<path d="M23.9999 12.2755C23.9999 11.4598 23.9324 10.6397 23.7885 9.83716H12.2406V14.4581H18.8535C18.5791 15.9485 17.6974 17.2669 16.4063 18.1047V21.103H20.3516C22.6683 19.013 23.9999 15.9264 23.9999 12.2755Z" fill="#4285F4"/>
<path d="M12.2407 24C15.5427 24 18.3273 22.9373 20.3562 21.1031L16.4109 18.1047C15.3132 18.8367 13.8962 19.2511 12.2452 19.2511C9.05119 19.2511 6.34303 17.1391 5.37134 14.2994H1.30011V17.3904C3.37846 21.4426 7.61164 24 12.2407 24Z" fill="#34A853"/>
<path d="M5.36688 14.2995C4.85404 12.8091 4.85404 11.1953 5.36688 9.70496V6.61401H1.30015C-0.436312 10.0048 -0.436312 13.9996 1.30015 17.3904L5.36688 14.2995Z" fill="#FBBC04"/>
<path d="M12.2407 4.74881C13.9861 4.72235 15.6731 5.36611 16.9372 6.54781L20.4326 3.12176C18.2193 1.08465 15.2817 -0.0353205 12.2407 -4.58262e-05C7.61164 -4.58262e-05 3.37846 2.55737 1.30011 6.61395L5.36684 9.7049C6.33404 6.86088 9.04669 4.74881 12.2407 4.74881Z" fill="#EA4335"/>
</g>
<defs>
<clipPath id="clip0">
<rect width="24" height="24" fill="white"/>
</clipPath>
</defs>
</svg>
